<?xml version="1.0" encoding="UTF-8"?>
<svg width="1248px" height="725px" viewBox="0 0 1248 725" version="1.1" xmlns="http://www.w3.org/2000/svg" xmlns:xlink="http://www.w3.org/1999/xlink">
    <!-- Generator: Sketch 44.1 (41455) - http://www.bohemiancoding.com/sketch -->
    <title>Page 1</title>
    <desc>Created with Sketch.</desc>
    <defs></defs>
    <g id="Page-1" stroke="none" stroke-width="1" fill="none" fill-rule="evenodd" opacity="0.5">
        <g id="v4" transform="translate(-192.000000, -1679.000000)" stroke="#C9BC9C">
            <g id="facts" transform="translate(192.000000, 1679.000000)">
                <g id="Group-24">
                    <g id="Page-1" transform="translate(662.000000, 343.500000) scale(1, -1) translate(-662.000000, -343.500000) translate(-942.000000, -425.000000)">
                        <path d="M3207.87756,947.320273 C3031.54378,858.458931 3113.79747,1427.25737 2952.93716,1311.04933 C2822.63429,1216.91655 2686.54002,1590.85637 2555.65504,1460.15565 C2300.00648,1204.86755 2202.27932,1597.96604 2025.23738,1527.93125 C1772.79044,1428.06767 1843.94643,905.148789 1626.53893,904.395726 C1441.87214,903.755623 1319.90228,1303.51871 1024.59632,1377.3188 C857.283896,1419.13183 783.802284,1103.21168 613.788198,1075.15183 C488.031057,1054.39593 297.094155,1104.1259 0.231641678,1377.12978" id="Stroke-1"></path>
                        <path d="M7.29908521,1349.24366 C292.287749,1087.15994 504.345047,1009.67962 635.035993,1032.3852 C805.290856,1061.96624 877.150056,1381.52895 1045.61467,1332.91803 C1335.82749,1249.176 1458.86172,887.485488 1642.48679,889.243888 C1859.83694,891.525667 1791.64109,1381.87762 2038.89078,1478.13855 C2211.54421,1545.58807 2309.33652,1179.85361 2559.62071,1422.95415 C2688.94985,1548.57095 2822.39557,1181.58189 2951.18083,1271.5284 C3109.18298,1381.88138 3028.31305,844.060155 3205.32808,929.367044" id="Stroke-3"></path>
                        <path d="M14.3665996,1321.3583 C287.480706,1070.19473 520.659108,964.932441 656.283859,989.618573 C826.784456,1020.65302 896.93343,1344.07065 1066.63309,1288.51801 C1351.68761,1195.20155 1475.85138,871.2146 1658.43473,874.092051 C1875.72893,877.902545 1810.49181,1335.68832 2052.54426,1428.34585 C2220.80988,1493.2086 2318.74169,1154.82085 2563.58645,1385.7534 C2691.39374,1506.29833 2822.13638,1146.24949 2949.42458,1232.00822 C3104.54165,1336.51669 3025.08097,829.661379 3202.77868,911.414568" id="Stroke-5"></path>
                        <path d="M21.4341139,1293.47225 C282.673664,1053.22884 536.972461,920.156716 677.531725,946.852772 C848.283721,979.282644 916.653778,1306.76305 1087.65151,1244.11731 C1367.51091,1141.58789 1492.84032,854.943787 1674.38267,858.941041 C1891.61951,864.279499 1829.34253,1289.4991 2066.19773,1378.55322 C2230.07484,1440.83072 2328.23043,1129.76104 2567.55219,1348.55198 C2693.87586,1464.03783 2821.85453,1110.91943 2947.66832,1192.48661 C3099.87128,1291.16487 3021.85031,815.263432 3200.22928,893.461413" id="Stroke-7"></path>
                        <path d="M28.5016283,1265.58613 C277.866621,1036.26212 553.287938,875.353053 698.780298,904.086142 C869.78936,937.859477 936.330928,1269.612 1108.66993,1199.71653 C1383.32218,1088.32658 1509.82997,838.673652 1690.33061,843.789203 C1907.5115,850.656378 1848.37524,1242.75404 2079.85121,1328.76128 C2239.46656,1388.06794 2337.80769,1104.67104 2571.51793,1311.35048 C2696.39836,1421.78781 2821.54931,1075.5938 2945.91207,1152.96643 C3095.17117,1245.82804 3018.61894,800.864656 3197.67987,875.508184" id="Stroke-9"></path>
                        <path d="M35.5691426,1237.70077 C273.059578,1019.29691 569.606248,830.520774 720.028164,861.320266 C891.299956,896.388868 955.984708,1232.61835 1129.68835,1155.31651 C1399.14689,1035.40114 1526.81963,822.402763 1706.27855,828.637365 C1923.40208,837.033256 1867.26349,1196.43672 2093.50468,1278.96933 C2248.75772,1335.60488 2347.48268,1079.54264 2575.48367,1274.14898 C2698.96688,1379.54606 2821.21788,1040.27571 2944.15581,1113.4455 C3090.43919,1200.51003 3015.38828,786.465881 3195.13047,857.554955" id="Stroke-11"></path>
                        <path d="M42.636657,1209.81465 C268.252535,1002.33094 585.927391,785.659878 741.275322,818.553636 C912.815509,854.875333 975.632823,1195.78434 1150.70677,1110.91574 C1415.00631,982.793495 1543.82344,805.731246 1722.22648,813.485527 C1939.31319,822.92215 1886.1482,1150.12543 2107.15816,1229.17663 C2258.04534,1283.14559 2357.26389,1054.36754 2579.44941,1236.94748 C2701.58427,1337.31185 2820.86026,1004.96666 2942.39955,1073.92532 C3085.67322,1155.21387 3012.1562,772.067105 3192.58177,839.602478" id="Stroke-13"></path>
                        <path d="M49.7041005,1181.9286 C263.445421,985.365052 602.252003,740.771948 762.523117,775.787082 C934.338073,813.324222 995.294322,1159.11006 1171.72512,1066.51504 C1430.91948,930.483383 1560.81727,789.419014 1738.17435,798.334518 C1955.20936,809.244883 1905.02859,1103.82099 2120.81156,1179.384 C2267.33077,1230.69164 2367.15764,1029.13529 2583.41508,1199.74681 C2704.25541,1295.08072 2820.47353,969.670482 2940.64323,1034.40446 C3080.87178,1109.94414 3008.92547,757.669158 3190.03159,821.649324" id="Stroke-15"></path>
                        <path d="M56.7716148,1154.04323 C258.638379,968.39984 618.580936,695.856832 783.770983,733.021205 C955.864957,771.738393 1014.98634,1122.59385 1192.74354,1022.11502 C1446.90353,878.448064 1577.81118,773.112732 1754.12229,783.18268 C1971.10702,795.575825 1923.90551,1057.52325 2134.46504,1129.5913 C2276.61272,1178.24439 2377.17467,1003.83518 2587.38082,1162.54531 C2706.98539,1252.84952 2820.05783,934.389291 2938.88697,994.883533 C3076.03357,1064.70294 3005.6941,743.270382 3187.48218,803.696095" id="Stroke-17"></path>
                        <path d="M63.8391292,1126.15711 C253.831336,951.433876 634.914117,650.913852 805.018848,690.254576 C977.398214,730.120937 1034.7244,1086.23126 1213.76195,977.714241 C1462.97186,826.663514 1594.80508,756.814733 1770.07023,768.030842 C1987.00397,781.914297 1942.77818,1011.23379 2148.11851,1079.7986 C2285.89184,1125.80242 2387.32342,978.452995 2591.34726,1125.34456 C2709.77912,1210.61154 2819.61098,899.128433 2937.13071,955.362601 C3071.15855,1019.49639 3002.46344,728.871607 3184.93278,785.742866" id="Stroke-19"></path>
                        <path d="M70.9066435,1098.27099 C249.024293,934.468664 651.252256,605.945268 826.267422,647.487946 C998.937137,688.474864 1054.52335,1050.01928 1234.78037,933.313466 C1479.13579,775.107142 1611.79898,740.522759 1786.01817,752.879757 C2002.90092,768.261806 1961.64519,964.952623 2161.77199,1030.00666 C2295.16742,1073.36873 2397.61168,952.974415 2595.31229,1088.14306 C2712.64224,1168.36151 2819.13226,863.891672 2935.37446,915.842423 C3066.24386,974.330507 2999.23136,714.473584 3182.38338,767.790389" id="Stroke-21"></path>
                        <path d="M77.9741579,1070.38563 C244.21725,917.502699 667.596768,560.949575 847.515288,604.722069 C1020.48173,646.802434 1074.39666,1013.9519 1255.79879,888.912692 C1495.40594,723.754097 1628.79217,724.239069 1801.9661,737.72792 C2018.79716,754.618352 1980.50795,918.681995 2175.42546,980.213956 C2304.43946,1020.94182 2408.04937,927.381369 2599.27803,1050.94156 C2715.58043,1126.08964 2818.62025,828.685034 2933.6182,876.321491 C3061.29094,929.208298 2996.0007,700.074808 3179.83468,749.83716" id="Stroke-23"></path>
                        <path d="M85.0416014,1042.49951 C239.410137,900.537487 683.946875,515.928277 868.762375,561.95544 C1042.03049,605.106658 1094.3563,978.021566 1276.81714,844.511917 C1511.78792,672.581034 1645.7853,707.961403 1817.91397,722.576082 C2034.69404,740.982429 1999.36638,872.421909 2189.07957,930.421256 C2313.7086,968.523945 2418.64207,901.652019 2603.2437,1013.74081 C2718.59998,1083.78238 2818.07631,793.515296 2931.86188,836.801313 C3056.2997,884.138804 2992.76926,685.676033 3177.2845,731.883931" id="Stroke-25"></path>
                        <path d="M92.1094698,1014.61339 C234.603448,883.571523 700.303072,470.881375 890.010595,519.18881 C1063.58535,563.389044 1114.41197,942.221515 1297.83592,800.111895 C1528.28858,621.56536 1662.77885,691.691268 1833.86226,707.424997 C2050.58993,727.355542 2018.21887,826.175379 2202.73198,880.629308 C2322.97321,916.114354 2429.39595,875.766786 2607.2098,976.53856 C2721.70495,1041.42692 2817.49951,758.389236 2930.10597,797.279628 C3051.27065,839.127296 2989.53825,671.27801 3174.73545,713.931454" id="Stroke-27"></path>
                        <path d="M99.1769842,986.728019 C229.796405,866.605558 716.665288,425.808868 911.258461,476.422181 C1085.14552,521.651098 1134.5735,906.544213 1318.85434,755.711121 C1544.90999,570.685238 1679.77062,675.42791 1849.8102,692.273159 C2066.48475,713.738445 2037.06534,779.942404 2216.38617,830.836608 C2332.23462,863.716058 2440.31519,849.697805 2611.17554,939.337814 C2724.90303,999.003687 2816.89119,723.315137 2928.34972,757.75945 C3046.20725,794.180551 2986.30688,656.879234 3172.18534,695.978225" id="Stroke-29"></path>
                        <path d="M106.244499,958.841975 C224.989362,849.640421 733.034586,380.711587 932.506326,433.656379 C1106.71064,479.8944 1154.84764,870.980699 1339.87275,711.310421 C1561.65461,519.92041 1696.76169,659.172158 1865.75814,677.121396 C2082.37887,700.129707 2055.90614,733.726072 2230.03964,781.043983 C2341.49179,811.329887 2451.39872,823.417289 2615.14128,902.136389 C2728.1953,956.487149 2816.25455,688.30437 2926.59346,718.238594 C3041.11127,749.306929 2983.07551,642.480534 3169.63664,678.025071" id="Stroke-31"></path>
                        <path d="M113.311942,930.955854 C220.182248,832.674457 749.410187,335.589378 953.754121,390.88975 C1128.28065,438.121059 1175.23997,835.522538 1360.8911,666.9104 C1578.52381,469.250392 1713.75269,642.923109 1881.70601,661.970312 C2098.27221,686.52993 2074.74192,687.529244 2243.69305,731.252036 C2350.74535,758.955689 2462.64223,796.895717 2619.10624,864.935642 C2731.58523,913.847034 2815.59163,653.365823 2924.83713,678.717662 C3035.98831,704.513056 2979.84477,628.082512 3167.08717,660.072595" id="Stroke-33"></path>
                        <path d="M120.379456,903.070111 C215.375914,815.708868 765.79294,290.442695 975.001987,348.123497 C1149.85569,396.332281 1195.75629,800.160393 1381.90952,622.509249 C1595.51629,418.65907 1730.74234,626.68046 1897.65395,646.818097 C2114.1635,672.94032 2093.57139,641.353125 2257.34652,681.45896 C2359.99473,706.596177 2474.03382,770.101161 2623.07268,827.733766 C2735.07154,871.043881 2814.91108,618.511241 2923.08088,639.197107 C3030.8456,659.806161 2976.6134,613.683359 3164.53776,642.119742" id="Stroke-35"></path>
                        <path d="M127.446971,875.184367 C210.568163,798.74328 782.183483,245.272668 996.249853,305.357243 C1171.43569,354.528441 1216.39868,764.884849 1402.92794,578.10885 C1612.63058,368.127992 1747.73129,610.445342 1913.60188,631.666636 C2130.05407,659.359746 2112.39449,595.203363 2271,631.666636 C2369.24057,654.252478 2485.55429,742.999355 2627.03842,790.532643 C2738.6485,828.029117 2814.21637,583.753052 2921.32462,599.676553 C3025.69014,615.192647 2973.38203,599.28496 3161.98836,624.166136" id="Stroke-37"></path>
                        <path d="M134.514485,847.298247 C205.76112,781.777315 798.581108,200.077412 1017.49772,262.590614 C1193.01993,312.712176 1237.16994,729.687248 1423.94636,533.708076 C1629.86526,317.643981 1764.71811,594.216626 1929.54982,616.515551 C2145.94252,645.788586 2131.21193,549.081841 2284.65347,581.874689 C2378.48216,601.926477 2497.17037,715.559048 2631.00416,753.331143 C2742.30193,784.743627 2813.52095,549.10368 2919.56837,560.155621 C3020.53468,570.67816 2970.15137,584.886938 3159.43824,606.212907" id="Stroke-39"></path>
                        <path d="M141.581999,819.412579 C200.954077,764.811802 814.985814,154.860017 1038.74558,219.824436 C1214.60914,270.883561 1258.06939,694.558628 1444.96478,489.307753 C1647.21679,267.19205 1781.66102,578.3423 1945.49776,601.363412 C2161.77149,632.685529 2150.0244,502.994659 2298.30694,532.081687 C2387.72092,549.62126 2508.83743,687.750192 2634.9699,716.130095 C2746.00848,741.113687 2812.83544,514.576003 2917.81211,520.635141 C3015.39126,526.267294 2966.92,570.487861 3156.88955,588.260129" id="Stroke-41"></path>
                        <path d="M148.649443,791.526459 C196.147672,747.845838 831.398239,109.618825 1059.99338,177.057806 C1236.20252,229.042445 1279.09907,659.489047 1465.98313,444.906978 C1664.68226,216.76 1798.6499,562.072164 1961.44563,586.211574 C2177.662,619.061654 2168.83185,456.94769 2311.96035,482.288987 C2396.95748,497.338183 2520.48955,659.550045 2638.93557,678.929348 C2749.727,697.055556 2812.44376,473.135516 2916.05578,481.11421 C3010.03319,488.351891 2963.68927,556.089085 3154.34007,570.3069" id="Stroke-43"></path>
                        <path d="M155.716957,763.640791 C191.340629,730.880325 847.818526,64.3547397 1081.24125,134.291629 C1257.80093,187.191991 1300.25558,624.471126 1487.00155,400.506655 C1682.25686,166.336685 1815.63955,545.800975 1977.39357,571.060188 C2193.55399,605.438985 2187.63654,410.947863 2325.61382,432.496739 C2406.19269,445.081162 2532.04119,630.946708 2642.90131,641.727547 C2753.3946,652.472992 2811.56138,445.927604 2914.29953,441.59373 C3005.20632,437.759138 2960.45719,541.690761 3151.79067,552.354122" id="Stroke-45"></path>
                        <path d="M162.784472,735.755047 C186.533586,713.914737 864.246602,19.0672343 1102.48911,91.5253754 C1279.40288,145.330918 1321.53886,589.496055 1508.01997,356.106257 C1699.93698,115.912542 1832.6292,529.530463 1993.3415,555.908727 C2209.44457,591.815487 2206.44123,365.003688 2339.2673,382.704415 C2415.42862,392.853435 2543.74437,614.082784 2646.86705,604.526424 C2756.53674,594.363096 2811.01397,411.821566 2912.54327,402.073176 C3000.20099,393.656952 2957.22653,527.292362 3149.24127,534.40127" id="Stroke-47"></path>
                        <path d="M169.851986,707.868927 C181.726543,696.948772 880.76249,-26.5339216 1123.73698,48.7587458 C1301.06785,103.247316 1342.94535,554.556001 1529.03839,311.705483 C1717.71907,65.4797394 1849.61886,513.259575 2009.28944,540.756889 C2225.33656,578.192365 2225.24733,319.126911 2352.92077,332.911715 C2424.66667,340.658466 2554.37397,572.583558 2650.83279,567.324924 C2760.18239,561.364437 2810.55649,377.863505 2910.78701,362.552244 C2995.28276,349.645511 2953.99516,512.893587 3146.69186,516.44804" id="Stroke-49"></path>
                        <path d="M176.9195,679.983183 C176.9195,679.983183 897.126123,-71.5729165 1144.98484,5.99249265 C1322.62023,61.5820399 1364.47082,519.643434 1550.05681,267.305085 C1735.59676,15.0292393 1866.6078,496.989063 2025.23738,525.605427 C2241.22713,564.56962 2244.06122,273.329582 2366.57425,283.119391 C2433.91038,288.500021 2564.86122,542.925859 2654.79853,530.123801 C2763.01577,514.719913 2810.21374,344.04815 2909.03076,323.031689 C2990.47005,305.711258 2950.7645,498.495187 3144.14246,498.495187" id="Stroke-51"></path>
                    </g>
                </g>
            </g>
        </g>
    </g>
</svg>